Simulation
nRows=20
nColumns=15
endheader
time  TH_x TH_y TH_z SC_y  SC_z  SC_x  AC_y  AC_z  AC_x  GH_y  GH_z  GH_yy  EL_x  PS_y
1.15  0.000000  0.000000  0.000000  -30.261307451190465  -0.1377247069097257  14.637016366812114  71.72358549942929  -0.4912308068851243  -3.4679573839089417  63.471700379262  42.27378053176501  -73.37868785510292  29.226550811184516  0.000000
1.173  0.000000  0.000000  0.000000  -30.241063879993643  -0.14176247215075227  14.662693939041048  71.75388724394307  -0.5367741967999392  -3.452276411009604  63.55432204576359  42.216139824637864  -73.35620125781762  29.27026470290116  0.000000
1.196  0.000000  0.000000  0.000000  -30.227536886734327  -0.14188274117107483  14.694665242334082  71.76585342724756  -0.5710395814185794  -3.4536239123225263  63.60488221343339  42.17475188932797  -73.32520056494869  29.29389604987462  0.000000
1.219  0.000000  0.000000  0.000000  -30.220776737364268  -0.13801872041335347  14.732814008585496  71.75986462721477  -0.593744231245624  -3.4716026085883502  63.62270136750898  42.14936566317574  -73.2845599935906  29.29683013053792  0.000000
1.242  0.000000  0.000000  0.000000  -30.220656849443273  -0.13012099652481549  14.776774682485005  71.73589086213651  -0.6047965727928069  -3.5060940561635348  63.60742253773796  42.140304954207735  -73.23267195102821  29.27851523926193  0.000000
1.265  0.000000  0.000000  0.000000  -30.227132265834044  -0.11813989309044866  14.82647668815607  71.69450842137073  -0.604077115364441  -3.556498904449995  63.55859236612236  42.1472244807418  -73.1679344253435  29.23862929032386  0.000000
1.288  0.000000  0.000000  0.000000  -30.23998689321981  -0.10204704448389237  14.881615122042481  71.63588811427789  -0.5916683802059506  -3.622510045631047  63.476081926310776  42.17035657159753  -73.08829809561142  29.176914785788913  0.000000
1.311  0.000000  0.000000  0.000000  -30.259094038755723  -0.08181709155815231  14.942171586550579  71.56080305846264  -0.567618353299341  -3.703337140173292  63.359671510882315  42.209255285229794  -72.9917572043279  29.093355628125835  0.000000
1.334  0.000000  0.000000  0.000000  -30.284164394053207  -0.05745291589821888  15.007903217725495  71.46962445643497  -0.5321853492203203  -3.7984956943870176  63.20947127356938  42.2640594238284  -72.87590617281226  28.9879967379808  0.000000
1.357  0.000000  0.000000  0.000000  -30.315011863127612  -0.02896595692129572  15.078844514178755  71.3633299368446  -0.48558342627667717  -3.907015542054048  63.02549812654917  42.33421370502298  -72.73843148093322  28.861136054008032  0.000000
1.38  0.000000  0.000000  0.000000  -30.351299606042488  0.003591627232639568  15.15481095125104  71.24249835168108  -0.42824303614191017  -4.028254232542828  62.808105878367925  42.41976713771291  -72.57668196859946  28.71312386834366  0.000000
1.403  0.000000  0.000000  0.000000  -30.392813429371767  0.040151007450580534  15.235887297994093  71.10831968386384  -0.360535792583441  -4.1610808928431045  62.55754892193469  42.52005272132513  -72.38815494651723  28.54457950352729  0.000000
1.426  0.000000  0.000000  0.000000  -30.43920381758779  0.08058563341700417  15.321941077530536  70.96159358883295  -0.2830509173157548  -4.304726609839975  62.274426928591446  42.635049877638714  -72.17008725084446  28.356159990176614  0.000000
1.449  0.000000  0.000000  0.000000  -30.490263061056318  0.12474519743792624  15.413105330654114  70.80373146603986  -0.19629800895522104  -4.457923636170464  61.959233314698515  42.76399264902946  -71.9199267411163  28.14881667836023  0.000000
1.472  0.000000  0.000000  0.000000  -30.545663046216745  0.17240656596781068  15.509291522700716  70.63577743281631  -0.10099172781179062  -4.619808794680216  61.61281988430905  42.90683019947995  -71.63495225022307  27.92351688396203  0.000000
1.4949999999999999  0.000000  0.000000  0.000000  -30.60524958521933  0.2233177971614028  15.610670311782965  70.45938641509422  0.002253454538392002  -4.7889845000489215  61.235927874006826  43.062733073952685  -71.3127287059873  27.681567427841003  0.000000
1.518  0.000000  0.000000  0.000000  -30.66876864710483  0.27714378347482194  15.717163083668954  70.27588468404734  0.11263709481454424  -4.964494443224849  60.829673087343835  43.231692644273416  -70.95075700306654  27.424243651882573  0.000000
1.541  0.000000  0.000000  0.000000  -30.736138076444842  0.33355350031137343  15.828957152092752  70.08717918425361  0.2295200744978457  -5.144785378167881  60.395099123887384  43.412817352764094  -70.54684433118237  27.15321131340143  0.000000
1.564  0.000000  0.000000  0.000000  -30.80718468309287  0.39211760566631876  15.945933437174144  69.89492500843029  0.3520928958551746  -5.328789135912075  59.93362078323711  43.60616500602676  -70.09891253745084  26.87002874434065  0.000000
1.587  0.000000  0.000000  0.000000  -30.881890471380885  0.4524389563129329  16.068245685850815  69.70126406273626  0.4797433191186734  -5.5147444733218665  59.446638112283175  43.8107303967558  -69.60522318589983  26.57673190182322  0.000000
